<svg width="25" height="36" viewBox="0 0 25 36" fill="none" xmlns="http://www.w3.org/2000/svg">
<path d="M9.032 21.464C9.032 20.088 9.432 18.952 10.232 18.056C11.064 17.16 12.248 16.2 13.784 15.176C15.096 14.312 16.072 13.544 16.712 12.872C17.352 12.2 17.672 11.416 17.672 10.52C17.672 9.368 17.288 8.504 16.52 7.928C15.784 7.352 14.584 7.064 12.92 7.064C11.256 7.064 9.976 7.496 9.08 8.36C8.184 9.192 7.736 10.312 7.736 11.72C7.736 12.36 7.8 13 7.928 13.64C7.384 13.736 6.84 13.784 6.296 13.784C4.76 13.784 3.432 13.416 2.312 12.68C1.224 11.944 0.68 10.936 0.68 9.656C0.68 8.152 1.208 6.728 2.264 5.384C3.352 4.04 4.824 2.968 6.68 2.168C8.568 1.368 10.648 0.967998 12.92 0.967998C15.192 0.967998 17.224 1.368 19.016 2.168C20.84 2.936 22.264 4.008 23.288 5.384C24.312 6.76 24.824 8.312 24.824 10.04C24.824 11.192 24.536 12.232 23.96 13.16C23.384 14.088 22.712 14.888 21.944 15.56C21.176 16.2 20.184 16.936 18.968 17.768C17.912 18.504 17.128 19.096 16.616 19.544C16.136 19.992 15.896 20.44 15.896 20.888V21.848C15.896 24.152 13.608 25.304 9.032 25.304V21.464ZM12.248 35.432C10.872 35.432 9.752 35.032 8.888 34.232C8.024 33.432 7.592 32.408 7.592 31.16C7.592 29.912 8.024 28.888 8.888 28.088C9.752 27.256 10.872 26.84 12.248 26.84C13.624 26.84 14.744 27.256 15.608 28.088C16.504 28.888 16.952 29.912 16.952 31.16C16.952 32.408 16.504 33.432 15.608 34.232C14.744 35.032 13.624 35.432 12.248 35.432Z" fill="white"/>
</svg>
