<svg width="80" height="101" viewBox="0 0 80 101" fill="none" xmlns="http://www.w3.org/2000/svg">
<mask id="mask0_1_21" style="mask-type:alpha" maskUnits="userSpaceOnUse" x="1" y="1" width="79" height="100">
<path d="M26.6578 52.7955V48.5372V48.2045V12.7772C26.6578 9.92963 28.9662 7.62121 31.8138 7.62121C34.5526 7.62121 36.8136 9.76258 36.9622 12.4974L38.8549 47.3236C38.9274 48.659 40.0314 49.7045 41.3687 49.7045C42.6925 49.7045 43.7902 48.6793 43.8804 47.3585L46.5521 8.23344C46.7819 4.86791 49.9517 2.49495 53.2457 3.22252C55.8017 3.78708 57.609 6.07017 57.5719 8.68752L57.026 47.1691C57.0062 48.5635 58.1311 49.7045 59.5257 49.7045H60.2262H61.4914L61.7048 48.4575L67.2242 16.197C67.6558 13.6741 69.8428 11.8295 72.4023 11.8295C75.5478 11.8295 77.9883 14.5751 77.6194 17.6989L73.9851 48.4767L68.2575 91.5267C67.7039 95.6877 64.1958 98.8215 59.999 98.9041L39.1747 99.3139C34.6985 99.402 30.7755 95.917 29.5858 91.2986C28.9659 88.892 28.116 86.3077 26.9543 83.9792C26.5977 83.2644 26.1485 82.632 25.6745 82.0698L3.88514 56.2244C2.6535 54.7635 2.47608 52.685 3.44229 51.0365C4.74474 48.8143 7.64054 48.1323 9.79784 49.5396L16.6063 53.9812C19.5203 55.8822 23.0723 55.0927 25.0785 52.7955H26.6578Z" stroke="black" stroke-width="3"/>
</mask>
<g mask="url(#mask0_1_21)">
<rect x="-13" y="-7" width="115" height="115" fill="white"/>
</g>
</svg>
