<svg width="81" height="73" viewBox="0 0 81 73" fill="none" xmlns="http://www.w3.org/2000/svg">
<mask id="mask0_1_20" style="mask-type:alpha" maskUnits="userSpaceOnUse" x="0" y="0" width="81" height="72">
<path d="M13.5 13.5108V9.09081C13.5 4.94867 16.8579 1.59081 21 1.59081H26.1716C27.5848 1.59081 28.9401 2.1522 29.9393 3.15147C30.8609 4.07306 32.1109 4.59081 33.4142 4.59081H34.241C35.5065 4.59081 36.7005 4.00443 37.4742 3.00302C38.1649 2.10901 39.2288 1.58277 40.3585 1.57626L50.6465 1.51699C52.1439 1.50837 53.5842 2.091 54.6544 3.13828L55.2859 3.75619C55.8327 4.29121 56.5672 4.59081 57.3322 4.59081C58.2005 4.59081 59.024 4.20512 59.5799 3.53806L59.9857 3.05108C60.7567 2.1258 61.899 1.59081 63.1034 1.59081L73.2153 1.59081C74.5892 1.59081 75.9044 2.14781 76.8603 3.13454L76.9327 3.20925L77.0147 3.27325C78.1962 4.19545 78.8144 5.66475 78.6477 7.15423L72.4861 62.1977C72.0112 66.4408 68.4623 69.6731 64.1934 69.7507L23.9788 70.4818C20.8362 70.539 17.922 68.8617 16.3963 66.1155L14.3112 62.3623C11.2635 56.8764 7.15615 52.1447 4.33347 49.2116C2.56517 47.3742 1.5 44.9977 1.5 42.5531V28.2507C1.5 25.7397 2.6102 23.3572 4.53287 21.7422L12.9648 14.6594L13.4648 14.2394L13.5 14.2098V13.5108Z" stroke="black" stroke-width="3"/>
</mask>
<g mask="url(#mask0_1_20)">
<rect x="-17" y="-21" width="115" height="115" fill="white"/>
</g>
</svg>
