<svg width="58" height="94" viewBox="0 0 58 94" fill="none" xmlns="http://www.w3.org/2000/svg">
<mask id="mask0_1_22" style="mask-type:alpha" maskUnits="userSpaceOnUse" x="0" y="1" width="58" height="93">
<path d="M10.0992 49.0801V44.8636H9.78257L7.09077 9.01909C6.84374 5.72947 9.4462 2.92424 12.7451 2.92424C15.6959 2.92424 18.1535 5.18748 18.3961 8.12835L21.3303 43.7019C21.4544 45.2061 22.7114 46.3636 24.2207 46.3636C25.6747 46.3636 26.9041 45.2868 27.0956 43.8454L31.8776 7.85219C32.3149 4.56108 35.4376 2.32084 38.6952 2.96118C41.6443 3.54085 43.6513 6.29141 43.3035 9.27669L39.2812 43.8008C39.1223 45.1655 40.1889 46.3636 41.5629 46.3636H42.2708L42.7209 45.8171L43.1283 45.3222C44.6272 43.5017 46.8618 42.447 49.22 42.447H51.036C53.2872 42.447 55.2945 43.8642 56.0479 45.9856C56.3242 46.7634 56.4156 47.595 56.3149 48.4143L51.8826 84.4832C51.366 88.6866 47.8339 91.8685 43.5996 91.945L18.8589 92.3921C15.7253 92.4487 12.816 90.778 11.287 88.0429L10.6251 86.8589C8.72863 83.4666 6.2734 80.4851 4.33546 78.3851C2.57898 76.4818 1.5 74.0912 1.5 71.6405V64.1408C1.5 61.6206 2.6183 59.2304 4.55298 57.6154L9.56044 53.4355L9.91874 53.1364L10.0992 52.9857V52.2839V49.1364V49.0801Z" stroke="black" stroke-width="3"/>
</mask>
<g mask="url(#mask0_1_22)">
<rect x="-29" y="-10" width="115" height="115" fill="white"/>
</g>
</svg>
